<?xml version="1.0" encoding="utf-8"?>
<!DOCTYPE svg PUBLIC "-//W3C//DTD SVG 1.1//EN" "http://www.w3.org/Graphics/SVG/1.1/DTD/svg11.dtd">
<svg version="1.1" id="Layer_1" xmlns="http://www.w3.org/2000/svg" xmlns:xlink="http://www.w3.org/1999/xlink" x="0px" y="0px"
	 width="800px" height="456px" viewBox="-3 37.833 106.167 62.167" enable-background="new -3 37.833 106.167 62.167"
	 xml:space="preserve">
<g>
	<path d="M93.784,82.453h-87.4c-0.426,0-0.773,0.347-0.773,0.773v5.671c0,0.428,0.347,0.773,0.773,0.773h87.4
		c0.426,0,0.772-0.347,0.772-0.773v-5.671C94.557,82.8,94.21,82.453,93.784,82.453z"/>
	<path d="M53.953,65.083v2.807c0,1.257-1.902,2.77-3.096,2.77h-1.547c-1.193,0-3.094-1.513-3.094-2.77l-0.001-2.807H0.144v28.971
		c0,0.854,0.692,1.547,1.547,1.547h96.786c0.855,0,1.547-0.692,1.547-1.547V65.083H53.953z M96.104,88.897
		c0,1.279-1.041,2.32-2.318,2.32H6.384c-1.28,0-2.32-1.041-2.32-2.32v-5.671c0-1.28,1.041-2.321,2.32-2.321h87.401
		c1.277,0,2.318,1.041,2.318,2.321V88.897z"/>
	<path d="M52.399,60.345h-4.633c-0.007,0.107-0.005,0.257-0.004,0.375l0.001,0.183v6.986c0.068,0.338,1.098,1.222,1.547,1.222h1.546
		c0.45,0,1.479-0.884,1.549-1.246l-0.002-6.962l0.002-0.183C52.405,60.602,52.407,60.453,52.399,60.345z"/>
	<path d="M63.231,55.962c0.428,0,0.773-0.348,0.773-0.772V43.006c0-0.426-0.348-0.772-0.773-0.772H36.935
		c-0.426,0-0.772,0.347-0.772,0.772v12.183c0,0.426,0.347,0.773,0.772,0.773h2.149v-8.621c0-1.234,0.812-2.202,1.851-2.202h18.3
		c1.036,0,1.851,0.967,1.851,2.202v8.621H63.231L63.231,55.962z"/>
	<path d="M53.953,63.536h46.07l-2.32-7.896c0-0.854-0.691-1.548-1.547-1.548H65.553v1.097c0,1.279-1.041,2.32-2.32,2.32h-2.922
		c-0.428,0-0.773-0.346-0.773-0.773v-2.644H40.631v2.644c0,0.428-0.346,0.773-0.773,0.773h-2.923c-1.278,0-2.319-1.041-2.319-2.32
		v-1.097H4.011c-0.854,0-1.547,0.693-1.547,1.548l-2.32,7.896h46.072v-2.802c-0.005-0.512-0.011-1.094,0.418-1.524
		c0.269-0.272,0.649-0.41,1.129-0.41h4.642c0.479,0,0.859,0.138,1.129,0.41c0.43,0.432,0.424,1.014,0.42,1.524v0.168V63.536z"/>
</g>
</svg>
